<svg xmlns="http://www.w3.org/2000/svg" viewBox="0 0 256 256"><defs><style>.cls-1{fill:#fefefe;}.cls-2{fill:#d2d2d2;}.cls-3{fill:#c6c6c6;}.cls-4{fill:#c1c1c1;}.cls-5{fill:#cdcdcd;}.cls-6{fill:#4d4d4d;}.cls-7{fill:#dfe0e0;}.cls-8{fill:#d6d6d7;}.cls-9{fill:#02b7e1;}.cls-10{fill:#33c4e6;}.cls-11{fill:#d6d8d8;}.cls-12{fill:#cfd0d0;}.cls-13{fill:#02b6e1;}.cls-14{fill:#33c5e8;}.cls-15{fill:#028aaa;}.cls-16{fill:#dadbdc;}.cls-17{fill:#028aa9;}.cls-18{fill:#02b7e2;}.cls-19{fill:#01b7e1;}.cls-20{fill:#d2d3d3;}</style></defs><g id="Layer_2" data-name="Layer 2"><g id="Layer_1-2" data-name="Layer 1"><path class="cls-1" d="M256,181.29V256H0V0H256V76.7l-37.2-.08c-1.24-1.93-2.56-3.81-3.71-5.8-8-13.89-16.11-27.76-24-41.74-1.77-3.15-3.86-4.27-7.47-4.26q-55.18.2-110.37,0c-3.13,0-5.15.73-6.79,3.65C57.39,44.62,48.08,60.64,38.85,76.7a58.6,58.6,0,0,0-3.39,4.8c-8,13.82-15.64,27.85-24,41.44-2.79,4.52-2.75,7.8.47,11.52,2.75,4.87,5.43,9.78,8.27,14.59,6.17,10.44,12.44,20.84,18.66,31.25,9.07,15.81,18.22,31.56,27.12,47.46,1.89,3.36,4.1,4.44,7.89,4.42q54.29-.21,108.57,0c4.59,0,7.08-1.41,9.33-5.4,8.63-15.28,17.65-30.33,26.52-45.46l11.83-.3Z"/><path class="cls-2" d="M218.8,76.62l37.2.08v32.87l-17.93,20.92c-1.15.33-2.52.36-3.42,1-1.93,1.45-3.42,3.56-5.44,4.81-7.31,4.51-14.69,8.93-22.21,13.09-4.52,2.51-9.33,4.48-14,6.69,2.29-4.17,4.49-8.4,6.87-12.52,9.1-15.74,9.12-15.73-.71-31l-9.9-18,16.95-17.79Z"/><path class="cls-3" d="M193,156.11c4.69-2.21,9.5-4.18,14-6.69,7.52-4.16,14.9-8.58,22.21-13.09,2-1.25,3.51-3.36,5.44-4.81.9-.67,2.27-.7,3.42-1,2,.27,4,.91,6,.74,4-.34,8-1.13,11.93-1.74v20.92a43.55,43.55,0,0,1-5.09-3.66c-4.59-4.4-9-8.95-13.53-13.44l-1.53.55-5.73,47.19-11.83.3a26.61,26.61,0,0,0-5-1c-11.41-.14-22.82-.14-34.23-.19l13.13-22.78,1-1.15Z"/><path class="cls-4" d="M230.12,181.05l5.73-47.19,1.53-.55c4.5,4.49,8.94,9,13.53,13.44a43.55,43.55,0,0,0,5.09,3.66v30.88Z"/><path class="cls-5" d="M256,129.49c-4,.61-7.93,1.4-11.93,1.74-2,.17-4-.47-6-.74L256,109.57Z"/><path class="cls-6" d="M179.07,180.15c11.41,0,22.82,0,34.23.19a26.61,26.61,0,0,1,5,1c-8.87,15.13-17.89,30.18-26.52,45.46-2.25,4-4.74,5.42-9.33,5.4q-54.28-.3-108.57,0c-3.79,0-6-1.06-7.89-4.42-8.9-15.9-18.05-31.65-27.12-47.46l39.21-.17c2.87,4.77,5.67,9.59,8.66,14.28.82,1.29,2.2,3.13,3.35,3.15,6.14.11,12.29-.28,18.44-.49q5-8.38,10.07-16.77h20l10.66,17.1c5.09.05,10.18,0,15.26.2a6.05,6.05,0,0,0,6.28-3.57C173.37,189.31,176.29,184.77,179.07,180.15Z"/><path class="cls-6" d="M218.8,76.62l-12.61.23-27.2,0c-2.79-4.63-5.46-9.34-8.42-13.84-1-1.52-2.71-3.55-4.17-3.61-5.68-.25-11.38.21-17.07.4L138.94,76.71H118.59l-9.13-15.92c-6.68-3.39-13.63-2-20.49-.9-.92.14-1.68,1.88-2.36,3-2.85,4.61-5.65,9.27-8.46,13.91l-39.3-.07c9.23-16.06,18.54-32.08,27.63-48.21,1.64-2.92,3.66-3.65,6.79-3.65q55.19.14,110.37,0c3.61,0,5.7,1.11,7.47,4.26,7.87,14,15.95,27.85,24,41.74C216.24,72.81,217.56,74.69,218.8,76.62Z"/><path class="cls-7" d="M38.85,76.7l39.29.07L51.21,123.68c-4.82.78-9.77,1.09-14.43,2.45-8.38,2.45-16.58,5.52-24.85,8.33-3.22-3.72-3.26-7-.47-11.52,8.36-13.59,16-27.62,24-41.44A58.6,58.6,0,0,1,38.85,76.7Z"/><path class="cls-8" d="M11.93,134.46c8.27-2.81,16.47-5.88,24.85-8.33,4.66-1.36,9.61-1.67,14.43-2.45-.42,2.38-1.91,5.25-1.08,7,2.37,5.13,5.67,9.82,8.61,14.69.79,1.6,1.51,3.24,2.39,4.79q8.43,15,16.94,29.92l-39.21.17c-6.22-10.41-12.49-20.81-18.66-31.25C17.36,144.24,14.68,139.33,11.93,134.46Z"/><path class="cls-9" d="M179.07,180.15c-2.78,4.62-5.7,9.16-8.3,13.89a6.05,6.05,0,0,1-6.28,3.57c-5.08-.25-10.17-.15-15.26-.2a33.85,33.85,0,0,1,1.68-4.12c7.22-12.63,14.58-25.19,21.73-37.87,5-8.9,9.77-18,14.65-26.95a23.47,23.47,0,0,0,2.92-2.89c3-4.28,6-8.65,8.93-13,9.83,15.27,9.81,15.26.71,31-2.38,4.12-4.58,8.35-6.87,12.52l.17.11-1,1.15Z"/><path class="cls-10" d="M199.14,112.59c-3,4.34-5.89,8.71-8.93,13a23.47,23.47,0,0,1-2.92,2.89h0a23.77,23.77,0,0,0-1.4-3.67c-6.79-11.87-13.73-23.67-20.46-35.59-5.49-9.74-10.75-19.63-16.11-29.45,5.69-.19,11.39-.65,17.07-.4,1.46.06,3.17,2.09,4.17,3.61,3,4.5,5.63,9.21,8.42,13.84q5.13,8.91,10.25,17.82Z"/><path class="cls-11" d="M189.24,94.64Q184.13,85.73,179,76.82l27.2,0Z"/><path class="cls-2" d="M192.2,157.37l1-1.15Z"/><path class="cls-12" d="M138.57,180.31h-20c-1-1.87-2.06-3.75-3.11-5.61L89.12,128.38l3-5,16.42.13c1,1.19,1.78,2.66,3,3.53,6.57,4.67,13.16,9.32,19.89,13.74,7.13,4.67,14.44,9.08,21.67,13.6Q145.84,167.34,138.57,180.31Z"/><path class="cls-13" d="M78.07,180.13q-8.47-15-16.94-29.92c-.88-1.55-1.6-3.19-2.39-4.79q4.95-8,9.92-16l39.86,67.62c-6.15.21-12.3.6-18.44.49-1.15,0-2.53-1.86-3.35-3.15C83.74,189.72,80.94,184.9,78.07,180.13Z"/><path class="cls-14" d="M108.52,197.07,68.66,129.45c.32-.35.63-.7,1-1l19.51,0,26.36,46.31c1,1.86,2.07,3.74,3.11,5.61Q113.55,188.68,108.52,197.07Z"/><path class="cls-15" d="M138.57,180.31q7.27-13,14.56-25.93l14.67-25,19.5-.91h0c-4.88,9-9.63,18.05-14.65,26.95-7.15,12.68-14.51,25.24-21.73,37.87a33.85,33.85,0,0,0-1.68,4.12Z"/><path class="cls-16" d="M108.58,123.51l-16.42-.13c.84-1.61,1.62-3.26,2.53-4.84q11.93-20.92,23.9-41.84h20.35c.89,1.93,1.67,3.92,2.7,5.76,5.61,10,11.29,20,16.94,30a28.39,28.39,0,0,0-4.44.31Q131.35,118.11,108.58,123.51Z"/><path class="cls-17" d="M69.61,128.41c-.32.34-.63.69-1,1q-5,8-9.92,16c-2.94-4.87-6.24-9.56-8.61-14.69-.83-1.8.66-4.67,1.08-7L78.14,76.77c2.82-4.64,5.62-9.3,8.47-13.91.68-1.1,1.44-2.84,2.36-3,6.86-1.08,13.81-2.49,20.49.9a13.66,13.66,0,0,0-2.67,2.58q-11,18.86-21.93,37.8C79.69,110.19,74.69,119.32,69.61,128.41Z"/><path class="cls-18" d="M158.58,112.5c-5.65-10-11.33-20-16.94-30-1-1.84-1.81-3.83-2.7-5.76l10.39-16.94c5.36,9.82,10.62,19.71,16.11,29.45,6.73,11.92,13.67,23.72,20.46,35.59a23.77,23.77,0,0,1,1.4,3.67l-19.5.91Q163.18,120.95,158.58,112.5Z"/><path class="cls-19" d="M69.61,128.41c5.08-9.09,10.08-18.22,15.25-27.25q10.85-19,21.93-37.8a13.66,13.66,0,0,1,2.67-2.58l9.13,15.92q-12,20.91-23.9,41.84c-.91,1.58-1.69,3.23-2.53,4.84l-3,5Z"/><path class="cls-20" d="M158.58,112.5q4.6,8.44,9.22,16.89l-14.67,25c-7.23-4.52-14.54-8.93-21.67-13.6-6.73-4.42-13.32-9.07-19.89-13.74-1.21-.87-2-2.34-3-3.53q22.77-5.37,45.56-10.7A28.39,28.39,0,0,1,158.58,112.5Z"/></g></g></svg>